<svg xmlns="http://www.w3.org/2000/svg" viewBox="0 0 720 460" role="img" aria-labelledby="title desc">
  <title id="title">Patty the study cat</title>
  <desc id="desc">A tabby cat with a mildly skeptical permit-test review face.</desc>
  <defs>
    <linearGradient id="room" x1="0" x2="1" y1="0" y2="1">
      <stop offset="0" stop-color="#f8efe0"/>
      <stop offset="1" stop-color="#d9edee"/>
    </linearGradient>
    <linearGradient id="fur" x1="0" x2="1" y1="0" y2="1">
      <stop offset="0" stop-color="#9b9a8b"/>
      <stop offset="0.55" stop-color="#565a52"/>
      <stop offset="1" stop-color="#242923"/>
    </linearGradient>
    <linearGradient id="chest" x1="0" x2="0" y1="0" y2="1">
      <stop offset="0" stop-color="#f4f0df"/>
      <stop offset="1" stop-color="#b9b49c"/>
    </linearGradient>
    <filter id="shadow" x="-20%" y="-20%" width="140%" height="140%">
      <feDropShadow dx="0" dy="12" stdDeviation="10" flood-color="#152421" flood-opacity="0.24"/>
    </filter>
  </defs>

  <rect width="720" height="460" fill="url(#room)"/>
  <rect x="0" y="335" width="720" height="125" fill="#d9d2bf"/>
  <path d="M88 355h540" stroke="#a99e84" stroke-width="10" stroke-linecap="round" opacity="0.55"/>
  <path d="M108 395h470" stroke="#b9af98" stroke-width="7" stroke-linecap="round" opacity="0.45"/>

  <g filter="url(#shadow)">
    <path d="M183 242c-34 15-55 47-55 83 0 70 79 108 203 108s223-43 223-113c0-50-41-88-99-100-73-15-202-8-272 22z" fill="url(#fur)"/>
    <path d="M270 309c30-18 105-18 142 3 31 17 47 52 43 87-31 16-72 25-124 25-48 0-90-6-121-19-2-40 20-75 60-96z" fill="url(#chest)" opacity="0.9"/>

    <path d="M212 137c-38-60-87-82-111-79-11 33 1 89 40 141z" fill="#60665d"/>
    <path d="M491 139c43-57 94-74 118-68 7 35-13 90-58 137z" fill="#60665d"/>
    <path d="M151 81c18 17 37 40 54 70l-51 37c-22-34-33-70-27-98 5-7 13-10 24-9z" fill="#d8aa9b"/>
    <path d="M566 93c-20 16-42 38-62 67l47 41c25-32 40-67 38-95-5-8-12-12-23-13z" fill="#d8aa9b"/>

    <path d="M152 202c0-95 79-153 199-153 122 0 209 60 209 156 0 105-86 169-206 169-123 0-202-66-202-172z" fill="url(#fur)"/>
    <path d="M205 206c3-76 59-119 147-119 90 0 153 43 161 121 8 80-57 123-157 123-101 0-154-45-151-125z" fill="#9b9a8b" opacity="0.34"/>

    <path d="M190 166c46-13 80-15 119-6" stroke="#252a25" stroke-width="18" stroke-linecap="round" opacity="0.55"/>
    <path d="M409 159c42-12 78-8 118 10" stroke="#252a25" stroke-width="18" stroke-linecap="round" opacity="0.55"/>
    <path d="M263 80c10 31 19 62 21 99" stroke="#20251f" stroke-width="13" stroke-linecap="round" opacity="0.55"/>
    <path d="M348 65c-5 35-7 69-3 108" stroke="#20251f" stroke-width="12" stroke-linecap="round" opacity="0.5"/>
    <path d="M432 82c-15 31-27 64-34 99" stroke="#20251f" stroke-width="12" stroke-linecap="round" opacity="0.52"/>

    <ellipse cx="271" cy="220" rx="48" ry="39" fill="#e8f0b1"/>
    <ellipse cx="444" cy="220" rx="48" ry="39" fill="#e8f0b1"/>
    <ellipse cx="283" cy="221" rx="16" ry="28" fill="#1b231f"/>
    <ellipse cx="432" cy="221" rx="16" ry="28" fill="#1b231f"/>
    <circle cx="292" cy="209" r="7" fill="#fff7d9"/>
    <circle cx="441" cy="209" r="7" fill="#fff7d9"/>

    <path d="M345 260c6-7 20-7 28 0 1 12-8 20-15 20-8 0-15-8-13-20z" fill="#d49a94"/>
    <path d="M357 278c-2 21-17 30-35 29" fill="none" stroke="#1f2621" stroke-width="6" stroke-linecap="round"/>
    <path d="M359 278c3 21 18 30 36 29" fill="none" stroke="#1f2621" stroke-width="6" stroke-linecap="round"/>

    <path d="M223 282c-42-3-83 3-124 18" stroke="#f9f3e2" stroke-width="5" stroke-linecap="round" opacity="0.9"/>
    <path d="M224 300c-48 7-91 20-128 43" stroke="#f9f3e2" stroke-width="5" stroke-linecap="round" opacity="0.9"/>
    <path d="M493 282c42-3 83 3 124 18" stroke="#f9f3e2" stroke-width="5" stroke-linecap="round" opacity="0.9"/>
    <path d="M492 300c48 7 91 20 128 43" stroke="#f9f3e2" stroke-width="5" stroke-linecap="round" opacity="0.9"/>

    <path d="M230 252c40 19 76 28 111 28" stroke="#2a302b" stroke-width="8" stroke-linecap="round" opacity="0.35"/>
    <path d="M486 252c-40 19-76 28-111 28" stroke="#2a302b" stroke-width="8" stroke-linecap="round" opacity="0.35"/>
    <path d="M230 333c36 14 77 21 122 21 44 0 84-7 121-21" stroke="#2a302b" stroke-width="9" stroke-linecap="round" opacity="0.38"/>
  </g>

  <g transform="translate(500 44) rotate(7)">
    <rect x="0" y="0" width="144" height="88" rx="8" fill="#fff9ea" stroke="#b9af98" stroke-width="5"/>
    <path d="M22 27h100M22 45h82M22 63h92" stroke="#7f7562" stroke-width="6" stroke-linecap="round"/>
    <path d="M119 15l14 14M133 15l-14 14" stroke="#b63f35" stroke-width="7" stroke-linecap="round"/>
  </g>
</svg>
